<?xml version="1.0" standalone="no"?>
<!DOCTYPE svg PUBLIC "-//W3C//DTD SVG 20010904//EN"
 "http://www.w3.org/TR/2001/REC-SVG-20010904/DTD/svg10.dtd">
<svg version="1.0" xmlns="http://www.w3.org/2000/svg"
 width="700.000000pt" height="700.000000pt" viewBox="0 0 700.000000 700.000000"
 preserveAspectRatio="xMidYMid meet">
<metadata>
Created by potrace 1.11, written by Peter Selinger 2001-2013
</metadata>
<g transform="translate(0.000000,700.000000) scale(0.100000,-0.100000)"
fill="#000000" stroke="none">
<path d="M6543 6425 c-46 -20 -327 -217 -419 -294 -6 -5 -83 -56 -170 -113
-143 -94 -181 -118 -289 -180 -140 -82 -356 -184 -519 -245 -114 -43 -339
-105 -421 -117 -22 -3 -69 -10 -105 -15 -84 -12 -297 -12 -380 0 -223 31 -404
110 -555 241 -172 150 -308 318 -430 534 -27 48 -67 106 -87 127 -35 37 -40
39 -80 34 -36 -5 -51 -14 -91 -58 -26 -29 -84 -107 -129 -174 -166 -245 -285
-385 -437 -515 -180 -154 -420 -282 -610 -326 -64 -15 -372 -22 -430 -10 -12
3 -42 8 -65 10 -75 10 -205 43 -221 57 -5 5 -16 9 -25 9 -24 0 -236 107 -400
202 -159 92 -236 128 -273 128 -31 0 -87 -61 -87 -93 1 -45 30 -100 98 -190
39 -51 79 -101 89 -112 109 -121 309 -422 409 -615 115 -221 181 -405 218
-605 23 -127 24 -442 1 -525 -2 -8 -7 -35 -10 -60 -24 -177 -109 -353 -265
-552 -97 -124 -321 -344 -440 -433 -162 -122 -175 -141 -165 -246 l7 -67 121
6 c191 8 534 8 617 -1 325 -32 598 -265 634 -539 11 -80 4 -327 -10 -349 -1
-3 -6 -28 -9 -55 -4 -27 -25 -119 -47 -204 -68 -262 -76 -299 -73 -347 4 -85
79 -118 162 -72 21 12 40 24 43 28 3 4 14 14 26 22 12 8 79 69 150 136 201
190 355 300 544 391 224 107 370 116 530 31 155 -82 263 -215 400 -494 91
-185 112 -210 172 -206 23 1 50 7 60 12 27 15 52 78 92 237 94 369 197 548
389 673 76 49 135 62 297 64 257 2 406 -32 632 -146 275 -138 525 -297 848
-538 339 -254 434 -302 495 -251 15 12 29 58 26 80 -6 35 -67 112 -163 205
-250 244 -448 445 -499 505 -29 36 -57 67 -60 70 -15 11 -178 235 -221 302
-153 240 -230 448 -224 602 8 197 116 387 279 490 260 165 636 284 1077 341
81 10 147 26 164 38 18 13 29 93 20 139 -10 48 -66 70 -294 113 -47 9 -96 19
-110 21 -389 74 -657 210 -806 408 -163 216 -169 483 -19 801 25 53 45 98 45
100 0 10 109 190 173 285 103 152 344 455 446 561 9 9 68 72 131 140 63 68
129 138 145 155 17 17 59 65 95 105 35 41 67 76 70 79 24 20 110 145 110 158
0 29 -47 88 -83 106 -42 19 -52 19 -94 1z m-3546 -662 c8 -199 9 -349 1 -407
-14 -113 -147 -336 -283 -477 -83 -86 -162 -144 -270 -199 -148 -75 -197 -89
-312 -85 -109 3 -121 5 -231 40 -186 59 -383 186 -612 393 l-45 41 30 -4 c147
-17 400 -22 479 -10 105 17 111 18 195 40 192 50 407 167 597 326 91 76 434
418 434 433 0 5 3 6 6 3 4 -4 9 -46 11 -94z m347 -86 c83 -84 188 -178 233
-210 366 -260 846 -333 1353 -208 63 16 175 47 249 70 174 55 191 52 120 -16
-30 -28 -72 -66 -94 -83 -22 -17 -47 -36 -55 -43 -108 -86 -346 -245 -428
-286 -172 -87 -400 -134 -647 -135 -95 0 -184 5 -219 13 -282 62 -598 383
-655 666 -12 58 -23 385 -13 385 3 0 73 -69 156 -153z m2082 -520 c-3 -13 -42
-98 -86 -190 -79 -163 -151 -358 -165 -447 -4 -25 -9 -56 -12 -70 -14 -71 -10
-269 7 -350 57 -267 188 -438 477 -625 34 -22 62 -43 63 -46 0 -4 -21 -5 -47
-3 -27 1 -109 5 -183 9 -295 12 -400 31 -536 95 -191 92 -283 247 -271 460 3
52 8 106 11 120 20 92 32 133 53 190 65 176 193 389 325 540 88 101 346 340
366 340 2 0 2 -10 -2 -23z m-2065 -305 c117 -102 245 -187 315 -210 89 -30
142 -34 469 -38 165 -1 302 -3 305 -4 15 -1 -242 -220 -326 -277 -170 -116
-339 -163 -499 -139 -109 16 -247 105 -325 211 -70 95 -72 105 -78 355 l-4
224 30 -24 c16 -14 68 -58 113 -98z m-329 46 c2 -29 3 -132 3 -228 -2 -248
-23 -302 -179 -463 -189 -193 -353 -174 -666 80 -8 6 -41 33 -73 58 -32 26
-57 48 -55 50 2 1 32 5 68 9 36 4 81 9 100 11 44 6 199 45 219 55 9 4 45 22
81 40 123 61 245 167 426 372 32 36 62 67 66 67 3 1 8 -23 10 -51z m-1824 -55
c15 -10 47 -33 72 -53 24 -19 56 -44 70 -55 167 -132 345 -397 439 -652 35
-95 79 -257 89 -323 8 -55 7 -174 -2 -215 -3 -16 -8 -43 -11 -58 -10 -50 -53
-173 -80 -228 -74 -146 -189 -285 -300 -364 -108 -76 -476 -238 -496 -218 -4
4 38 73 94 153 105 150 197 316 243 436 29 77 29 78 38 149 14 110 16 151 16
426 1 426 -1 438 -124 753 -76 193 -98 266 -81 266 3 0 18 -8 33 -17z m3328
-569 c-44 -186 -50 -227 -48 -336 2 -165 43 -268 165 -414 l78 -95 -149 2
c-166 2 -262 18 -337 54 -76 37 -121 79 -151 143 -24 49 -28 70 -28 147 -1 96
18 162 72 250 60 97 196 231 376 368 27 20 51 35 53 33 2 -2 -12 -71 -31 -152z
m-2497 -101 c100 -75 171 -147 220 -223 165 -255 137 -599 -64 -783 -88 -81
-255 -167 -282 -146 -12 11 -2 46 52 179 54 135 79 281 79 475 1 180 -14 281
-60 424 -34 105 -40 131 -27 131 3 0 40 -26 82 -57z m2611 -924 c0 -4 -6 -14
-13 -21 -123 -125 -214 -265 -241 -372 -17 -63 -16 -235 2 -301 6 -22 13 -58
17 -79 3 -21 8 -50 12 -64 8 -35 10 -36 -217 161 -158 138 -212 221 -216 332
-4 92 18 139 99 219 79 78 145 113 228 123 82 10 329 11 329 2z m990 4 c0 -2
-46 -26 -102 -54 -262 -131 -421 -280 -522 -492 -39 -81 -53 -123 -71 -217
-21 -101 8 -272 84 -510 17 -52 31 -101 31 -108 0 -8 -14 -2 -37 15 -21 15
-47 35 -57 43 -108 81 -269 322 -344 516 -40 102 -53 153 -56 225 -16 316 241
540 660 575 44 4 80 7 81 8 3 2 333 1 333 -1z m-3280 -364 c51 -11 91 -45 125
-104 24 -40 55 -135 60 -183 4 -35 -26 -119 -69 -192 -20 -34 -36 -63 -36 -66
0 -2 -11 -21 -23 -42 -13 -20 -32 -50 -42 -67 l-18 -29 -34 103 c-74 228 -237
392 -446 450 -26 8 -47 17 -47 20 0 13 209 90 290 106 80 16 180 18 240 4z
m1432 -266 c104 -42 189 -102 406 -287 50 -43 92 -81 92 -84 0 -2 -39 0 -87 4
-145 14 -330 10 -402 -9 -95 -26 -180 -70 -272 -142 -45 -36 -85 -65 -89 -65
-10 0 -33 159 -32 223 2 111 39 233 93 302 24 29 90 74 129 86 35 11 91 1 162
-28z m-2079 -14 c126 -33 273 -107 330 -168 120 -127 147 -307 81 -541 -36
-127 -208 -485 -218 -453 -3 10 -8 54 -11 98 -4 44 -8 91 -11 105 -2 14 -8 53
-14 86 -30 184 -127 374 -250 493 -99 95 -180 140 -362 200 -157 52 -172 73
-79 113 214 94 362 112 534 67z m1327 -111 c53 -24 118 -85 144 -137 28 -55
50 -151 62 -276 3 -33 7 -66 9 -72 6 -19 2 -17 -87 42 -200 134 -328 164 -537
125 -34 -6 -65 -9 -68 -7 -2 3 10 31 28 63 87 157 159 232 256 269 46 18 144
14 193 -7z m1070 -414 c36 -4 67 -8 70 -9 256 -59 580 -201 668 -292 12 -13
22 -28 22 -34 0 -5 -10 -7 -22 -4 -13 3 -34 7 -48 9 -14 2 -81 16 -150 30
-457 96 -776 -23 -1034 -388 -38 -53 -70 -95 -72 -94 -5 6 -35 144 -41 193 -8
63 -8 179 0 225 17 99 60 173 142 248 117 107 249 140 465 116z m-1198 -93
c112 -43 262 -165 332 -270 44 -66 82 -163 90 -233 3 -21 8 -53 11 -70 3 -18
7 -55 10 -81 l5 -48 -86 70 c-175 142 -344 204 -554 204 -79 1 -172 -11 -208
-24 -15 -6 -29 -10 -32 -10 -18 1 -102 -28 -210 -74 -139 -59 -170 -70 -170
-60 0 15 52 108 99 179 96 142 200 257 302 334 57 43 165 97 209 104 55 9 148
-1 202 -21z"/>
</g>
</svg>
